<svg width="41" height="41" xmlns="http://www.w3.org/2000/svg" xmlns:xlink="http://www.w3.org/1999/xlink" xml:space="preserve" overflow="hidden"><defs><clipPath id="clip0"><rect x="451" y="247" width="41" height="41"/></clipPath></defs><g clip-path="url(#clip0)" transform="translate(-451 -247)"><path d="M482.561 268.055C483.33 271.173 480.127 274.248 476.967 272.967 474.319 272.027 473.294 268.952 475.13 266.304 479.273 260.795 476.241 252.125 469.365 249.135 472.482 255.029 467.699 260.453 464.966 262.717 462.232 264.98 460.396 267.329 459.841 268.696 457.065 275.444 461.207 281.893 464.026 283.43 462.745 280.526 461.549 274.974 466.589 269.764 466.589 269.764 465.136 275.316 468.297 279.159 471.457 283.003 471.415 285.865 471.415 285.865 476.326 285.865 480.981 282.918 482.946 278.092 484.441 275.23 484.569 270.703 482.561 268.055" fill="#A5A5A5"/></g></svg>